<?xml version="1.0" encoding="UTF-8" standalone="no"?>
<!-- Created with Inkscape (http://www.inkscape.org/) -->

<svg
   width="512"
   height="512"
   viewBox="0 0 512 512"
   version="1.1"
   id="svg1"
   inkscape:version="1.3.2 (091e20ef0f, 2023-11-25, custom)"
   sodipodi:docname="consul.svg"
   xmlns:inkscape="http://www.inkscape.org/namespaces/inkscape"
   xmlns:sodipodi="http://sodipodi.sourceforge.net/DTD/sodipodi-0.dtd"
   xmlns="http://www.w3.org/2000/svg"
   xmlns:svg="http://www.w3.org/2000/svg">
  <sodipodi:namedview
     id="namedview1"
     pagecolor="#505050"
     bordercolor="#ffffff"
     borderopacity="1"
     inkscape:showpageshadow="0"
     inkscape:pageopacity="0"
     inkscape:pagecheckerboard="1"
     inkscape:deskcolor="#d1d1d1"
     inkscape:document-units="px"
     inkscape:zoom="2.1855469"
     inkscape:cx="263.77837"
     inkscape:cy="256"
     inkscape:window-width="2560"
     inkscape:window-height="1338"
     inkscape:window-x="0"
     inkscape:window-y="0"
     inkscape:window-maximized="1"
     inkscape:current-layer="svg1" />
  <defs
     id="defs1" />
  <g
     inkscape:groupmode="layer"
     id="layer3"
     inkscape:label="Layer 2">
    <rect
       style="fill:#ffffff;fill-opacity:0.932132;stroke-width:1.89477"
       id="rect1"
       width="511.86594"
       height="512.65234"
       x="0.15549599"
       y="-0.22520104" />
  </g>
  <g
     inkscape:label="Layer 1"
     inkscape:groupmode="layer"
     id="layer1">
    <path
       class="cls-7"
       d="m 257.12928,446.31323 c -33.55957,0.0234 -66.61921,-7.69385 -96.31065,-22.48505 C 131.12717,409.03697 105.70546,387.61341 86.758056,361.42471 67.810635,335.24373 55.911086,305.08028 52.083916,273.5531 48.26491,242.03371 52.632769,210.10363 64.827561,180.54449 77.013878,150.98533 96.649722,124.68043 122.02224,103.91545 147.40296,83.158154 177.75825,68.5607 210.4491,61.409187 c 32.69092,-7.159307 66.74217,-6.66341 99.18722,1.441138 32.44504,8.112266 62.30859,23.577541 87.00086,45.070865 v 0 l -48.94211,48.40261 c -19.45552,-16.61971 -43.59056,-27.53682 -69.47936,-31.44963 -25.8888,-3.90507 -52.4169,-0.62761 -76.37979,9.43723 -23.95477,10.06482 -44.31177,26.48312 -58.60432,47.2636 -14.28434,20.78821 -21.88955,45.03988 -21.88955,69.82616 0,24.7863 7.60521,49.03797 21.88955,69.82624 14.29255,20.78048 34.64955,37.19878 58.60432,47.2636 23.96289,10.06484 50.49099,13.34227 76.37979,9.42948 25.8888,-3.90505 50.02384,-14.82217 69.47936,-31.44194 l 48.94211,48.4026 c -38.01782,33.10776 -87.82855,51.47087 -139.5079,51.43209 z"
       id="path18"
       style="fill:#e03875;stroke-width:0px" />
    <path
       class="cls-7"
       d="m 423.05872,348.79521 c -3.34366,0 -6.60538,-0.9375 -9.39181,-2.69632 -2.77813,-1.7588 -4.94169,-4.25372 -6.22017,-7.17477 -1.27843,-2.91331 -1.61445,-6.12872 -0.96703,-9.22806 0.65561,-3.09921 2.26193,-5.95056 4.63034,-8.18203 2.36017,-2.23913 5.37607,-3.75782 8.65412,-4.37764 3.27814,-0.6121 6.67916,-0.2946 9.76879,0.91425 3.08143,1.20874 5.72848,3.25424 7.58062,5.88081 1.86032,2.63442 2.85193,5.71817 2.85193,8.87941 -0.006,4.2382 -1.79478,8.29823 -4.9663,11.28904 -3.16331,2.99846 -7.45771,4.67985 -11.94049,4.69531 z"
       id="path19"
       style="fill:#e03875;stroke-width:0px" />
    <path
       class="cls-7"
       d="m 255.80984,293.58983 c -8.85083,0.041 -17.50502,-2.40969 -24.88079,-7.03537 -7.3757,-4.61784 -13.12878,-11.20376 -16.53805,-18.9287 -3.4092,-7.71716 -4.31885,-16.21688 -2.61429,-24.4221 1.70463,-8.21307 5.94978,-15.75196 12.19455,-21.67926 6.24484,-5.9196 14.2106,-9.96416 22.88121,-11.59899 8.67872,-1.6426 17.67717,-0.81357 25.84779,2.38644 8.17893,3.19995 15.16126,8.61591 20.07841,15.57374 4.90898,6.95782 7.53149,15.13211 7.52326,23.5001 -0.0131,11.16505 -4.70412,21.86526 -13.0469,29.77613 -8.33454,7.90306 -19.63578,12.37373 -31.44519,12.42801 z"
       id="path20"
       style="fill:#e03875;stroke-width:0px" />
    <path
       class="cls-7"
       d="m 442.4487,294.34137 c -3.34367,0 -6.61361,-0.93757 -9.39181,-2.69637 -2.77815,-1.75108 -4.94992,-4.24594 -6.22834,-7.16698 -1.2785,-2.92105 -1.61451,-6.13653 -0.95886,-9.2358 0.64743,-3.09926 2.26186,-5.94286 4.6221,-8.18205 2.36841,-2.23147 5.37614,-3.75788 8.65419,-4.36998 3.27812,-0.61983 6.67916,-0.30221 9.76877,0.90652 3.08963,1.20875 5.7285,3.25426 7.58881,5.8886 1.85212,2.62665 2.84374,5.71815 2.84374,8.87166 0,4.23819 -1.79476,8.29827 -4.9581,11.28902 -3.17157,2.99854 -7.4659,4.68766 -11.9405,4.69538 z"
       id="path21"
       style="fill:#e03875;stroke-width:0px" />
    <path
       class="cls-7"
       d="m 392.18716,292.3501 c -3.34367,0 -6.62178,-0.9453 -9.40817,-2.71184 -2.77819,-1.75881 -4.94992,-4.26924 -6.22017,-7.19801 -1.27024,-2.92885 -1.59809,-6.15199 -0.92606,-9.259 0.66377,-3.09934 2.29462,-5.95064 4.67128,-8.17437 2.38482,-2.23141 5.41708,-3.73457 8.70338,-4.33121 3.29448,-0.59658 6.69551,-0.25536 9.78512,0.97634 3.08144,1.23966 5.71209,3.31615 7.54785,5.96602 1.82754,2.64988 2.7864,5.75691 2.75361,8.92588 -0.0495,4.20727 -1.85213,8.22854 -5.01553,11.1883 -3.16334,2.95203 -7.44129,4.61789 -11.89131,4.61789 z"
       id="path22"
       style="fill:#e03875;stroke-width:0px" />
    <path
       class="cls-7"
       d="m 442.4487,240.49183 c -3.34367,0 -6.61361,-0.93757 -9.39181,-2.68865 -2.77815,-1.75881 -4.94992,-4.25372 -6.22834,-7.17477 -1.2785,-2.92105 -1.61451,-6.13652 -0.95886,-9.23573 0.64743,-3.09928 2.26186,-5.94284 4.6221,-8.18203 2.36841,-2.23146 5.37614,-3.75016 8.65419,-4.36998 3.27812,-0.61984 6.67916,-0.30222 9.76877,0.90658 3.08963,1.20868 5.7285,3.26191 7.58881,5.88855 1.85212,2.62662 2.84374,5.7181 2.84374,8.87935 0,4.23046 -1.79476,8.29049 -4.9581,11.28909 -3.17157,2.99073 -7.4659,4.67979 -11.9405,4.68759 z"
       id="path23"
       style="fill:#e03875;stroke-width:0px" />
    <path
       class="cls-7"
       d="m 392.19535,242.30487 c -3.34367,0 -6.61357,-0.93756 -9.39176,-2.68858 -2.7782,-1.75887 -4.94992,-4.25379 -6.22836,-7.17484 -1.27848,-2.92098 -1.6145,-6.12872 -0.95889,-9.22799 0.64742,-3.09928 2.26192,-5.95056 4.62216,-8.18199 2.36841,-2.23924 5.37613,-3.75787 8.65419,-4.37775 3.27811,-0.61211 6.67908,-0.30223 9.76869,0.91431 3.08963,1.20868 5.72857,3.25419 7.58064,5.88082 1.86031,2.62661 2.85198,5.71811 2.85198,8.87939 0,4.23819 -1.77842,8.30597 -4.94999,11.29676 -3.17151,2.99849 -7.46583,4.67987 -11.94866,4.67987 z"
       id="path24"
       style="fill:#e03875;stroke-width:0px" />
    <path
       class="cls-7"
       d="m 424.04215,186.75077 c -3.34366,0.006 -6.61354,-0.92205 -9.4,-2.67314 -2.78636,-1.75108 -4.95809,-4.24597 -6.24476,-7.16702 -1.28666,-2.92106 -1.62268,-6.13653 -0.97526,-9.23581 0.64743,-3.0992 2.25368,-5.95051 4.61394,-8.18976 2.36846,-2.2392 5.37612,-3.76555 8.65419,-4.38543 3.27812,-0.61983 6.67915,-0.30223 9.76877,0.90652 3.09778,1.20873 5.73666,3.25424 7.59697,5.88088 1.86037,2.63435 2.85198,5.72588 2.85198,8.88713 0,4.23042 -1.77836,8.29043 -4.94174,11.28125 -3.16341,2.99853 -7.4495,4.68765 -11.92409,4.69538 z"
       id="path25"
       style="fill:#e03875;stroke-width:0px" />
  </g>
</svg>
